<svg version="1.1" xmlns="http://www.w3.org/2000/svg" viewBox="0 0 1121.5 843">
  <!-- svg-source:excalidraw -->
  <defs>
    <style>
      @font-face {
        font-family: "Virgil";
        src: url("https://excalidraw.com/FG_Virgil.woff2");
      }
      @font-face {
        font-family: "Cascadia";
        src: url("https://excalidraw.com/Cascadia.woff2");
      }
    </style>
  </defs>
  <rect x="0" y="0" width="1121.5" height="843" fill="#ffffff"></rect><g transform="translate(166 487) rotate(0 89 21.5)"><path d="M-0.19602627493441105 1.615682641044259 C63.799313729070136 2.7154780234210194, 129.03030093461277 0.9300821031443774, 177.81873749755323 -1.7222556080669165 M0.9470517532899976 -0.8648169385269284 C62.71749308332801 0.47987573390826577, 123.63916904013604 1.7318194711767136, 177.62344529200345 -0.6723097013309598 M178.94118403457105 -0.10546722076833248 C178.92593907208183 15.451242906879635, 176.2389829644654 34.32812248338014, 177.51733963750303 44.50164190866053 M177.61415912676603 -0.9247918771579862 C177.27089052225463 16.58823919808492, 177.09799541856162 33.445320680737495, 177.68272357154638 43.7495221151039 M178.1933903004974 42.14319531060755 C122.54091472644359 43.546950663942845, 65.68353459611535 42.70329287232831, 0.7581227924674749 42.345315197482705 M178.76711874175817 42.588783408515155 C109.54582301490008 42.508514689374714, 40.95092060621826 41.76874585645273, 0.805765469558537 42.104981060139835 M-1.8652497623115778 41.528723457828164 C-0.30679772959090773 28.069171720463782, -0.6604065166506916 11.794169314764439, -1.3163959477096796 0.25120810605585575 M0.37519939709454775 42.25009715091437 C-0.4345151053648442 33.82681143628433, -0.01837708222679796 26.48237837515771, -0.43171490263193846 0.6899350536987185" style="stroke: rgb(0, 0, 0); stroke-width: 1px; fill: none;"></path></g><g transform="translate(198.5 499) rotate(0 57.5 13)"><text x="0" y="18" font-family="Virgil" font-size="20px" fill="#000000" text-anchor="start">Sierra work</text></g><g transform="translate(339 412) rotate(0 0 0.5)"><path d="M0 0 C0 0, 0 0, 0 0 M0 0 C0 0, 0 0, 0 0 M-0.09667562888935209 -0.029282117914408448 C-0.08369582614861429 0.2997526297345758, -0.08157226464711131 0.46842255881056194, -0.043024060595780615 0.9855709810741246 M-0.007251145457848905 -0.020042395824566486 C0.02919400332495571 0.4136625774670392, 0.04513125268742442 0.8174539822619409, 0.007520746672526002 1.0339626295026392 M0 1 C0 1, 0 1, 0 1 M0 1 C0 1, 0 1, 0 1 M-0.09126176880672575 0.9031579305417836 C-0.06330307316966355 0.6107923537492752, 0.05562213170342147 0.3493278275243938, -0.00107245789840818 0.03138478593900801 M-0.006962536787614229 1.0113867250736803 C0.056153251118958 0.6867503094021231, 0.05626017440110445 0.4730420000385493, -0.04056052914820612 0.0026974869426339837" style="stroke: rgb(0, 0, 0); stroke-width: 1px; fill: none;"></path></g><g transform="translate(271 420) rotate(0 27 13)"><text x="0" y="18" font-family="Virgil" font-size="20px" fill="#000000" text-anchor="start">776$w</text></g><g><g transform="translate(262 486) rotate(0 -0.1499462383054322 -66.80554555881768)"><path d="M-0.5795147404074669 0.6439657911658287 C-0.41155490726232524 -21.866928459703924, -0.0509109005331993 -111.62007963806391, 0.07270536571741104 -134.23929145485164 M-0.0411335457488895 1.8226131553575398 C0.09924332845956083 -21.03529192853719, 0.2959269462898373 -112.79037564326077, 0.27962226379662747 -135.4337042729929" style="stroke: rgb(0, 0, 0); stroke-width: 1px; fill: none;"></path></g><g transform="translate(262 486) rotate(0 -0.1499462383054322 -66.80554555881768)"><path d="M11.585108348890547 -107.11143146327211 C9.313187130453183 -113.27458424125744, 5.654140185771414 -120.42266262080611, 2.1525471057370305 -135.47865896780044 M10.435896707489494 -106.70657353347613 C6.544964130970702 -118.93287441967087, 1.8333949938372225 -130.12843648888844, -0.5801648017391563 -136.21514475081116" style="stroke: rgb(0, 0, 0); stroke-width: 1px; fill: none;"></path></g><g transform="translate(262 486) rotate(0 -0.1499462383054322 -66.80554555881768)"><path d="M-8.936089844999731 -107.13209720578917 C-6.65054442064471 -113.19155775211973, -5.752266984480969 -120.33504670704848, 2.1525471057370305 -135.47865896780044 M-10.085301486400784 -106.72723927599318 C-5.776006645623837 -118.89664760945799, -2.2873799425200794 -130.08395172345178, -0.5801648017391563 -136.21514475081116" style="stroke: rgb(0, 0, 0); stroke-width: 1px; fill: none;"></path></g></g><g transform="translate(169 308.5) rotate(0 89 21.5)"><path d="M-0.12355681508779526 -0.21102110296487808 C70.06839673891665 1.080849647000432, 135.55946070551875 0.803961038067937, 179.33330301195383 -0.13030997663736343 M0.6208126954734325 -0.7503768019378185 C70.04474152624607 -0.5757319214195014, 139.35616349056363 0.3890349385887384, 178.65056721493602 -0.4699678234755993 M179.37488893419504 -0.7362574711441994 C178.50680469390005 14.317268796637654, 178.8613338362798 25.48123055025935, 177.65600565820932 42.04912742227316 M177.22183052822948 0.9814281649887562 C178.28293292660265 14.164377835765482, 178.70668344635516 26.849787986278535, 178.63627056404948 42.4163972325623 M177.56520632654428 43.07458861917257 C108.85476441308856 46.50219443075359, 37.54938994348049 44.39097049467266, -0.1162852868437767 41.792918764054775 M177.26054291054606 42.666834969073534 C115.6540209248662 43.92402705125511, 54.11248230710626 44.39714809827507, 0.4120854549109936 42.77699400857091 M-1.8023604974150658 41.25642927736044 C0.058371383585035796 34.74633274190128, 0.881269056238234 23.045402161031962, -1.006763182580471 -1.4655863419175148 M0.9614371471107006 42.532528180629015 C0.7056077833101153 32.65297652296722, 0.989534389488399 22.00855136066675, 0.02671794220805168 -0.2982116751372814" style="stroke: rgb(0, 0, 0); stroke-width: 1px; fill: none;"></path></g><g transform="translate(201.5 319.5) rotate(0 57.5 13)"><text x="0" y="18" font-family="Virgil" font-size="20px" fill="#000000" text-anchor="start">Sierra work</text></g><g transform="translate(171 121.5) rotate(0 89 21.5)"><path d="M1.6664412841200829 0.7872257605195045 C55.24469679221511 -1.2776932317763567, 108.45316317677498 0.1139910619705915, 178.30568512529135 -0.2733170613646507 M-0.059454064816236496 0.09283725544810295 C41.28512245118618 0.9374189581722021, 84.44063112661243 1.0018936600536108, 178.8230362124741 0.781012337654829 M176.2178040370345 -0.3813283070921898 C178.5831931931153 12.0502521853894, 176.08609736982734 28.697935277968647, 177.39570602029562 41.12530568987131 M178.38649274781346 0.39142970368266106 C178.45949447792023 9.401282265409828, 178.18982148807495 19.972944366931916, 178.27217592671514 43.20415846630931 M177.07985862344503 42.85561231523752 C106.24884437397122 44.26038786061108, 38.57489646971226 43.47883912213147, -1.5378097668290138 43.38474539667368 M177.93936171010137 43.929108303040266 C125.18601482361555 42.24584141679108, 69.43720361217856 41.71785548634827, 0.6301176734268665 43.410213988274336 M-0.7749828472733498 41.80297926813364 C-1.6580148756876587 32.53056265600026, -1.87762961987406 21.01770567521453, 1.8759873732924461 -0.21350380033254623 M-0.142912607640028 42.46551660820842 C-0.312633943669498 26.28675204105675, 0.4912328003719449 8.628537248075006, -0.9819227270781994 -0.3919587917625904" style="stroke: rgb(0, 0, 0); stroke-width: 1px; fill: none;"></path></g><g transform="translate(205 133.5) rotate(0 56 13)"><text x="0" y="18" font-family="Virgil" font-size="20px" fill="#000000" text-anchor="start">METS work</text></g><g><g transform="translate(264 165) rotate(0 -0.4134757958725288 72.97691376358271)"><path d="M-1.0507043614983558 0.6497661128640175 C-1.5344252521793047 24.69198538611333, -1.5731716250379881 121.29915445794663, -1.7399659410119057 145.3040614143014 M1.2074960858747366 1.5435612593963741 C0.9085352590804301 25.82882440476368, -1.7884043694411713 120.56934937187782, -2.034447677619755 144.55615361679347" style="stroke: rgb(0, 0, 0); stroke-width: 1px; fill: none;"></path></g><g transform="translate(264 165) rotate(0 -0.4134757958725288 72.97691376358271)"><path d="M-10.635055678538013 114.92870810631712 C-7.119558680129253 125.76292528209382, -4.31793523167274 138.52093761155706, -3.297207519598305 145.87582147020848 M-11.318416556916166 116.41574791450103 C-8.751303722554049 126.74224209538143, -5.112290587700154 137.0428504419561, -2.6183606276288627 144.494143727161" style="stroke: rgb(0, 0, 0); stroke-width: 1px; fill: none;"></path></g><g transform="translate(264 165) rotate(0 -0.4134757958725288 72.97691376358271)"><path d="M9.881884993804519 115.34721477701223 C5.2512970134771475 125.83569836251083, -0.08949998250279734 138.4276207604379, -3.297207519598305 145.87582147020848 M9.198524115426366 116.83425458519613 C3.882365542741196 126.95013514329028, -0.36425843029137006 137.08989145129664, -2.6183606276288627 144.494143727161" style="stroke: rgb(0, 0, 0); stroke-width: 1px; fill: none;"></path></g></g><g transform="translate(274.5 221) rotate(0 77.5 13)"><text x="0" y="18" font-family="Virgil" font-size="20px" fill="#000000" text-anchor="start">recordIdentifier</text></g><g transform="translate(10 655.5) rotate(0 89 21.5)"><path d="M1.6570607051253319 -0.0227028951048851 C69.30121570453048 0.8598212902992963, 136.81361868977547 0.9170252984017133, 177.7229631766677 -0.8444990739226341 M-0.24141500517725945 0.6562850885093212 C45.685811290144926 -2.1744584283977746, 92.42409181520344 -1.4107001266628505, 177.5044671483338 0.13371722027659416 M177.8402212485671 -0.6801104173064232 C175.97998235885055 17.67514154724777, 179.54820178214462 30.949865252524614, 177.3468814715743 44.315514363348484 M177.66213144734502 0.7470947913825512 C176.90993494074792 16.293321695551278, 177.75622493308038 31.024282944202422, 177.0167973227799 42.823567908257246 M177.58968885987997 44.870955266058445 C135.33395706489682 40.363843206241725, 90.14520372450352 40.63599777586758, 0.41381581872701645 42.30338577181101 M178.335808057338 42.79073576256633 C109.76813414543867 44.19805364795029, 40.49418047890066 43.554165770485994, -0.941831212490797 43.865541856735945 M1.6513131484389305 41.53698829561472 C-0.6612850022688508 27.19728830344975, 0.4134194063767791 12.898642083257435, -1.1819466724991798 -1.7478282079100609 M-0.2866693548858166 43.18357030674815 C-0.8920880688354373 32.57816116400063, 0.8468334542587399 24.20216410011053, 0.5505786128342152 0.9802201204001904" style="stroke: rgb(0, 0, 0); stroke-width: 1px; fill: none;"></path></g><g transform="translate(52.5 667.5) rotate(0 47.5 13)"><text x="0" y="18" font-family="Virgil" font-size="20px" fill="#000000" text-anchor="start">Miro work</text></g><g transform="translate(307 657.5) rotate(0 89 21.5)"><path d="M1.0749531164765358 1.0618854388594627 C61.80681920424104 0.3193904084712267, 128.0807156264782 -0.7581344919651747, 177.80664662271738 -1.3608748093247414 M0.8417348079383373 -0.6190860085189342 C64.28678664267063 1.7519466326385738, 127.60919977501035 0.9574247048050166, 178.86621360108256 0.9967378564178944 M179.32168225198984 -1.0760141983628273 C178.01288401599973 8.920885356143117, 177.5087476920709 20.648581724613905, 176.00336507707834 43.43563564866781 M177.8682325296104 -0.5475631766021252 C178.81097412128003 14.041023102775215, 178.82854712028058 28.429311072826383, 178.01335875317454 43.84037448838353 M178.04421857744455 41.474951826035976 C130.0382626287639 43.84706089965999, 82.91466904580592 42.715962390825155, -1.6187870129942894 42.53209575265646 M177.2861601524055 43.23671676591039 C109.18772658854722 42.26722827129066, 40.151957056671364 40.641460921093824, -0.5292429514229298 43.91349186375737 M1.7974937334656715 41.820008121430874 C0.5344305616989731 32.967576659843324, 0.4913385492935776 23.560297480970622, 1.471684493124485 -0.317832387983799 M-0.7698387689888477 42.1127821393311 C-1.0548463122919203 26.97627322487533, -0.16171636749058965 8.239319516718389, -0.17772920802235603 0.8333995528519154" style="stroke: rgb(0, 0, 0); stroke-width: 1px; fill: none;"></path></g><g transform="translate(346 669.5) rotate(0 51 13)"><text x="0" y="18" font-family="Virgil" font-size="20px" fill="#000000" text-anchor="start">Calm work</text></g><g><g transform="translate(253 531) rotate(0 -79.84487723898144 63.220165680348885)"><path d="M-0.1405424103140831 0.6773117288947106 C-26.823191402852533 21.827792905271053, -133.0623993858695 105.01924469321966, -159.6855345234275 125.76301963180303 M0.5724800132587551 1.1827200133726001 C-26.207744423262778 22.218944682590664, -133.4932423163578 103.7601470930502, -160.26223449122162 124.69887424182147" style="stroke: rgb(0, 0, 0); stroke-width: 1px; fill: none;"></path></g><g transform="translate(253 531) rotate(0 -79.84487723898144 63.220165680348885)"><path d="M-143.05500167188274 98.22874874660947 C-150.1927459672288 106.35127436043591, -156.60451663889756 116.73929671443895, -161.92176866989584 125.3245354584977 M-144.75296550196634 99.81670678073742 C-150.2939040160287 109.09923481232036, -156.363840128437 118.51245624793629, -160.2396974572167 124.58404269363731" style="stroke: rgb(0, 0, 0); stroke-width: 1px; fill: none;"></path></g><g transform="translate(253 531) rotate(0 -79.84487723898144 63.220165680348885)"><path d="M-130.5363811382691 114.48925742011738 C-141.70334922633938 117.16291436435375, -152.29880055885337 122.11672969129674, -161.92176866989584 125.3245354584977 M-132.2343449683527 116.07721545424533 C-142.22778579308226 119.34167509147584, -152.8623803631114 122.82583523455979, -160.2396974572167 124.58404269363731" style="stroke: rgb(0, 0, 0); stroke-width: 1px; fill: none;"></path></g></g><g transform="translate(74.5 554.5) rotate(0 34.5 25.5)"><text x="0" y="18.5" font-family="Virgil" font-size="20px" fill="#000000" text-anchor="start">962$u</text><text x="0" y="44" font-family="Virgil" font-size="20px" fill="#000000" text-anchor="start">089$a</text></g><g><g transform="translate(404 656) rotate(0 -72.7983584586531 -63.22946718727704)"><path d="M0.017546534165739924 -0.2112492855638266 C-24.323364754890402 -21.00674998126924, -121.46684772210816 -104.33972721658648, -145.6142634514719 -125.31106600128115 M-0.6447419929224998 -1.3607403619866818 C-24.64504304753927 -22.499614434717223, -120.25431534982907 -105.42958493250421, -144.27801345911809 -126.24768508899025" style="stroke: rgb(0, 0, 0); stroke-width: 1px; fill: none;"></path></g><g transform="translate(404 656) rotate(0 -72.7983584586531 -63.22946718727704)"><path d="M-116.61033671914018 -114.88597037639978 C-124.4747506786685 -117.23716019399872, -135.10122500044605 -123.02825908852886, -143.63805788819678 -126.95232114682905 M-115.59537514957017 -115.67604566269132 C-123.25748871376696 -118.27995945889167, -129.14824950434257 -120.56433789737682, -144.32460951962508 -125.48612182236276" style="stroke: rgb(0, 0, 0); stroke-width: 1px; fill: none;"></path></g><g transform="translate(404 656) rotate(0 -72.7983584586531 -63.22946718727704)"><path d="M-130.05563999757175 -99.38294415127724 C-133.33381038860188 -106.94408876582747, -139.4435543636768 -117.94317647003106, -143.63805788819678 -126.95232114682905 M-129.04067842800174 -100.17301943756878 C-133.81483855513756 -106.25687860778872, -136.67176611355603 -112.03940024072526, -144.32460951962508 -125.48612182236276" style="stroke: rgb(0, 0, 0); stroke-width: 1px; fill: none;"></path></g></g><g transform="translate(356.5 583) rotate(0 40.5 13)"><text x="0" y="18" font-family="Virgil" font-size="20px" fill="#000000" text-anchor="start">BNumber</text></g><g transform="translate(138 282) rotate(0 48.5 10.5)"><text x="0" y="15" font-family="Virgil" font-size="16px" fill="#000000" text-anchor="start">Digitised bib</text></g><g transform="translate(670 303.5) rotate(0 89 21.5)"><path d="M-1.6851410362869501 0.5570373926311731 C37.90102481152863 0.08200495136901731, 75.6193222358823 2.4603663553111255, 177.20456170104444 -0.6021288838237524 M-0.2422134978696704 0.11224433314055204 C41.412380626052624 0.15939330821856856, 81.53559218924494 0.14244666462764144, 178.9718082146719 0.15433042775839567 M177.18882464431226 -0.24559440277516842 C178.97486959309316 10.866415769886228, 177.29505459875799 24.058361016400163, 176.098903587088 43.175052324309945 M177.15270759630948 0.3483814550563693 C178.8280958273541 16.961167722102257, 179.06520438577047 33.52249658405781, 177.29503302741796 43.53926649224013 M178.77739565633237 44.66572682000697 C106.29465332049875 42.222548522371795, 36.37849080339072 42.81999180497601, 1.5725358631461859 42.87864992953837 M178.37430124450475 42.895373488776386 C139.2080128800124 43.32623367207125, 101.5480006461963 41.83515258328989, 0.30409177113324404 43.81388437282294 M-1.4077702853828669 44.52055428363383 C-1.027320200065151 35.10849180789664, -0.9636316238436848 24.765744288824497, 1.7054756190627813 1.0136077795177698 M0.4230862455442548 43.79615866672248 C-0.7045081149321049 31.089261559117585, -0.23969455468468365 17.50320929251611, 0.6059485571458936 -0.257198010571301" style="stroke: rgb(0, 0, 0); stroke-width: 1px; fill: none;"></path></g><g transform="translate(699.5 314.5) rotate(0 60.5 13)"><text x="0" y="18" font-family="Virgil" font-size="20px" fill="#000000" text-anchor="start">Merged work</text></g><g><g transform="translate(344 509) rotate(0 208.189761280641 -76.04103972607554)"><path d="M-0.9140047911554574 -0.7252738650888204 C37.94901623688638 -1.5038959241161742, 163.40400294028223 22.992597029979034, 233.1052582975477 -3.6767190750688314 C302.80651365481316 -30.346035180116697, 386.6845674511045 -134.74456773363053, 417.29352735243737 -160.741170495376 M1.262045027045533 -0.5244994850736111 C40.499832287756725 -1.3323043617388852, 166.6678908545058 22.206104517203443, 235.76535601171665 -4.279958425639197 C304.8628211689275 -30.766021368481837, 385.5444832608383 -133.2085160737019, 415.8468359703105 -159.44087714212947" style="stroke: rgb(0, 0, 0); stroke-width: 1px; fill: none;"></path></g><g transform="translate(344 509) rotate(0 208.189761280641 -76.04103972607554)"><path d="M402.26063153534335 -133.60447883166825 C407.41969293577404 -139.5621034040396, 409.2836719789517 -148.4853009485579, 416.4196098944079 -159.0707870356273 M404.43409672673 -132.26622540716534 C406.747448143336 -140.8170420554963, 411.7908779160211 -151.0822021211721, 416.45887507907116 -159.70105815655552" style="stroke: rgb(0, 0, 0); stroke-width: 1px; fill: none;"></path></g><g transform="translate(344 509) rotate(0 208.189761280641 -76.04103972607554)"><path d="M387.590531628261 -147.95397955824617 C397.1805242869746 -149.58215086292927, 403.3564517236741 -154.28763298644103, 416.4196098944079 -159.0707870356273 M389.7639968196476 -146.61572613374327 C397.0317674639859 -150.37514833272706, 406.93065626750393 -155.8909601777291, 416.45887507907116 -159.70105815655552" style="stroke: rgb(0, 0, 0); stroke-width: 1px; fill: none;"></path></g></g><g><g transform="translate(352 329) rotate(0 156.0165816269303 -0.47204471267760084)"><path d="M0.8973031226545574 0.9190336581319569 C52.867339434598875 0.4085141893476246, 260.42565604286887 -1.023821342363954, 312.07371168769896 -1.8631230834871533 M-0.04054843383841211 0.7865501860063522 C51.35959857853441 0.7496511006634682, 257.60644396565544 -0.5300005128700284, 309.72402871263216 -1.27001253423281" style="stroke: rgb(0, 0, 0); stroke-width: 1px; fill: none;"></path></g><g transform="translate(352 329) rotate(0 156.0165816269303 -0.47204471267760084)"><path d="M283.16396494403733 11.048112239045999 C292.4427120121685 5.3102710648843505, 297.7075829772143 3.7326116961253035, 308.57799808730374 -1.3143277624715117 M282.54205641437574 8.901476944154105 C291.0030740244948 4.719122356470473, 301.20732633855647 2.1031648017312063, 308.97668072723786 -0.5046155024413017" style="stroke: rgb(0, 0, 0); stroke-width: 1px; fill: none;"></path></g><g transform="translate(352 329) rotate(0 156.0165816269303 -0.47204471267760084)"><path d="M282.96853747582657 -9.472165792464896 C292.5152427969742 -8.621904572463428, 297.84287030703945 -3.6100002330803767, 308.57799808730374 -1.3143277624715117 M282.34662894616497 -11.61880108735679 C290.73159637892053 -8.764940036322681, 301.002876578881 -4.342834482013765, 308.97668072723786 -0.5046155024413017" style="stroke: rgb(0, 0, 0); stroke-width: 1px; fill: none;"></path></g></g><g><g transform="translate(351 145) rotate(0 204.03549744633494 70.0378246193558)"><path d="M-0.7790948633104562 0.3118531409651042 C40.31501022540033 -0.37474303406973675, 178.713599300012 -30.281522454445565, 246.66296752654017 -4.494526379927993 C314.61233575306835 21.292469694589578, 379.8629347916692 128.25866199967763, 406.9171144958585 155.03382958807052 M0.6627754095476122 0.7717942727822811 C41.58337693455629 -0.07532536663425449, 178.11012241574934 -30.04420269616259, 246.14134147348813 -4.545733254132792 C314.1725605312269 20.952736187897006, 381.6749868691247 127.47449285151748, 408.8500897559803 153.76261092496105" style="stroke: rgb(0, 0, 0); stroke-width: 1px; fill: none;"></path></g><g transform="translate(351 145) rotate(0 204.03549744633494 70.0378246193558)"><path d="M383.411744671539 139.82837371936688 C391.6876045992699 141.7221477867433, 398.90168143862473 149.808697143117, 410.77755500669593 154.4377282183338 M382.9692252144595 138.9716610362629 C391.9601166521691 142.89083781487795, 400.69605986522146 147.52715296183283, 408.10431321165527 154.3830398102943" style="stroke: rgb(0, 0, 0); stroke-width: 1px; fill: none;"></path></g><g transform="translate(351 145) rotate(0 204.03549744633494 70.0378246193558)"><path d="M399.15178703299705 126.66132891632378 C402.53550709246366 132.51092550746407, 404.8985855187483 144.65548893886915, 410.77755500669593 154.4377282183338 M398.7092675759176 125.8046162332198 C402.5639670307247 134.12665549697482, 406.11603086463487 143.0994502080427, 408.10431321165527 154.3830398102943" style="stroke: rgb(0, 0, 0); stroke-width: 1px; fill: none;"></path></g></g><g><g transform="translate(488 681) rotate(0 146.3683574511344 -149.8579960725093)"><path d="M0.4288978938013315 0.9302316840738059 C33.64029347139101 1.6728241817404828, 149.19783372518918 58.73174860638877, 198.21362192668022 4.144022780284286 C247.22941012817125 -50.44370304582019, 278.3036456588656 -271.7537342333545, 294.5236271027476 -326.5961232725531 M-1.786912200478837 -0.8188293139357121 C31.264363254976146 -0.12465237967359544, 148.36205990927604 58.74388066388976, 197.630187009247 4.317123362896964 C246.89831410921798 -50.10963393809583, 277.7601932897884 -272.27304195555234, 293.821850399347 -327.37937311989253" style="stroke: rgb(0, 0, 0); stroke-width: 1px; fill: none;"></path></g><g transform="translate(488 681) rotate(0 146.3683574511344 -149.8579960725093)"><path d="M299.43435520886254 -298.9662889399433 C295.67291438051444 -304.7396148692316, 295.2444125180981 -309.36099556443855, 295.6379979745019 -328.11977281768804 M297.1354373798035 -298.0288154500404 C296.27802078284793 -307.59169057364693, 295.12305183608413 -316.17737017923724, 294.2109472359065 -327.2859755575005" style="stroke: rgb(0, 0, 0); stroke-width: 1px; fill: none;"></path></g><g transform="translate(488 681) rotate(0 146.3683574511344 -149.8579960725093)"><path d="M279.3779647061641 -303.309237522313 C279.8592905634778 -308.2330910489589, 283.6848301229832 -311.93331481115774, 295.6379979745019 -328.11977281768804 M277.07904687710504 -302.3717640324101 C282.3627967864034 -310.5059254861725, 287.3914012738055 -317.7526332824396, 294.2109472359065 -327.2859755575005" style="stroke: rgb(0, 0, 0); stroke-width: 1px; fill: none;"></path></g></g><g><g transform="translate(103 703) rotate(0 357.274581273597 -124.9258474522436)"><path d="M-0.01645348034799099 0.17405012212693682 C15.538783268506329 11.307154068971673, -14.720506286248565 56.341056495532385, 93.1734451893717 65.97273616157472 C201.06739666499197 75.60441582761705, 543.7047625108312 125.72449366413056, 647.3472553733736 57.964128118380906 C750.9897482359161 -9.796237427368759, 703.8336612466724 -274.204628549392, 715.0284023646266 -340.58945711292324 M-1.6683858579676598 -0.01374995690770442 C13.718741972517842 11.34375540880176, -15.62901138666085 57.98135449367575, 92.7358301081974 67.43515279698185 C201.10067160305567 76.88895110028795, 545.2294308889626 125.0617744480353, 648.5206631111819 56.70903986292891 C751.8118953334011 -11.643694722177464, 701.4043811112363 -276.3560461797534, 712.4832234415132 -342.68125471365636" style="stroke: rgb(0, 0, 0); stroke-width: 1px; fill: none;"></path></g><g transform="translate(103 703) rotate(0 357.274581273597 -124.9258474522436)"><path d="M723.25898361416 -315.9510075585128 C718.4425797936613 -323.72508449216315, 718.7539032269079 -328.9854956981081, 713.1674615866411 -341.82175124515777 M722.0572138160973 -314.5809298451201 C718.4964694002073 -324.3432412157846, 715.7536048493462 -334.7069624388209, 711.6543837920669 -343.5999731364194" style="stroke: rgb(0, 0, 0); stroke-width: 1px; fill: none;"></path></g><g transform="translate(103 703) rotate(0 357.274581273597 -124.9258474522436)"><path d="M702.738430970715 -315.7869295482988 C703.8091771483357 -323.60525624130776, 710.0065213298616 -328.9127308275249, 713.1674615866411 -341.82175124515777 M701.5366611726522 -314.41685183490614 C705.2520603898637 -324.1577429412492, 709.7857098249767 -334.5796456351677, 711.6543837920669 -343.5999731364194" style="stroke: rgb(0, 0, 0); stroke-width: 1px; fill: none;"></path></g></g><g transform="translate(687 176) rotate(0 41 13)"><text x="0" y="18" font-family="Virgil" font-size="20px" fill="#000000" text-anchor="start">SIM rule</text></g><g transform="translate(456 296) rotate(0 34 13)"><text x="0" y="18" font-family="Virgil" font-size="20px" fill="#000000" text-anchor="start">Nothing</text></g><g transform="translate(503 482.5) rotate(0 27 10.5)"><text x="0" y="15" font-family="Virgil" font-size="16px" fill="#000000" text-anchor="start">Target</text></g><g transform="translate(580 669) rotate(0 41 13)"><text x="0" y="18" font-family="Virgil" font-size="20px" fill="#000000" text-anchor="start">SIM rule</text></g><g transform="translate(411 807) rotate(0 70 13)"><text x="0" y="18" font-family="Virgil" font-size="20px" fill="#000000" text-anchor="start">SIM rule 1 only</text></g><g transform="translate(323 10) rotate(0 93.5 18)"><text x="0" y="25" font-family="Virgil" font-size="28px" fill="#000000" text-anchor="start">Items Merging</text></g><g><g transform="translate(319 60) rotate(0 109.66326940914149 -5.61704621541314)"><path d="M-0.40290920175611966 0.7699220303446055 C36.22904016338289 -1.1022733446210624, 183.34927173219623 -10.004215156659484, 219.9063267644495 -12.300753259286285 M-0.5797879461664708 1.0760505982954056 C35.867155699012805 -1.2272529530804603, 181.97415878194386 -10.171436788765714, 218.31843031751924 -12.310143029121683" style="stroke: rgb(0, 0, 0); stroke-width: 1px; fill: none;"></path></g></g><g transform="translate(655.5 10) rotate(0 41 13)"><text x="0" y="18" font-family="Virgil" font-size="20px" fill="#000000" text-anchor="start">SIM rule</text></g><g transform="translate(658.5 45) rotate(0 226.5 41)"><text x="0" y="14.5" font-family="Virgil" font-size="16px" fill="#000000" text-anchor="start">1. If there is a single Sierra Item</text><text x="0" y="35" font-family="Virgil" font-size="16px" fill="#000000" text-anchor="start">merge the locations from the source =&gt; single item</text><text x="0" y="55.5" font-family="Virgil" font-size="16px" fill="#000000" text-anchor="start"></text><text x="0" y="76" font-family="Virgil" font-size="16px" fill="#000000" text-anchor="start">2. Or add the items verbatim from the source =&gt; target</text></g></svg>