<svg xmlns="http://www.w3.org/2000/svg" viewBox="0 0 1000 300">
  <style>
    .cls-s3{fill:#E15344;}
    .cls-azure{fill: #0079D8;}
    text {
      fill: black;
      font-size: 24px;
      stroke-width: 0;
      dominant-baseline: middle;
      font-family: sans-serif;
    }

    line {
      stroke-linecap: round;
      stroke-width: 4;
      stroke: black;
    }
  </style>

  <!-- https://thenounproject.com/term/database/396180/ Database by icon 54. From The Noun Project, CC BY -->
  <g transform="scale(1.6) translate(15 35)">
    <svg y="20" xmlns="http://www.w3.org/2000/svg" xmlns:xlink="http://www.w3.org/1999/xlink" height="300px" width="300px" fill="#000000" version="1.1" viewBox="0 0 100 100" enable-background="new 0 0 100 100" xml:space="preserve">
      <path d="M12,0C6.393,0,2,1.977,2,4.5v15C2,22.023,6.393,24,12,24s10-1.977,10-4.5v-15C22,1.977,17.607,0,12,0z M21,14.5  c0,1.655-3.696,3.5-9,3.5s-9-1.845-9-3.5v-3.018C4.603,12.984,7.985,14,12,14s7.397-1.016,9-2.518V14.5z M21,9.5  c0,1.655-3.696,3.5-9,3.5s-9-1.845-9-3.5V6.482C4.603,7.984,7.985,9,12,9s7.397-1.016,9-2.518V9.5z M12,1c5.304,0,9,1.845,9,3.5  S17.304,8,12,8S3,6.155,3,4.5S6.696,1,12,1z M12,23c-5.304,0-9-1.845-9-3.5v-3.018C4.603,17.984,7.985,19,12,19s7.397-1.016,9-2.518  V19.5C21,21.155,17.304,23,12,23z"></path>
    </svg>
  </g>

  <rect width="100" height="100" x="300" y="100" rx="15" ry="15" fill="rgba(255, 206, 60, 0.5)"
        stroke-width="4"
        stroke="#ffce3c"/>

  <!-- https://thenounproject.com/term/plug/1456415/ Plug by Lakshisha. From The Noun Project, CC BY -->
  <g transform="scale(0.25) translate(1255 446)">
    <svg x="0px" y="0px" height="300px" width="300px" fill="#000000" version="1.1" viewBox="0 0 100 100" style="enable-background:new 0 0 100 100;" xml:space="preserve">
      <path data-name="Compound Path" d="M17.8,96.8l2.8-2.8a8.3,8.3,0,0,1,0-11.7L21.8,81A15,15,0,0,0,43,81l8.9-8.9,1.2,1.2A2,2,0,0,0,56,70.5l-5.2-5.2,9-9A2,2,0,0,0,57,53.4l-9,9L37.6,52.1l9-9a2,2,0,0,0-2.8-2.8l-9,9L29.5,44a2,2,0,0,0-2.8,2.8l1.2,1.2L19,57a15,15,0,0,0,0,21.2l-1.2,1.2A12.3,12.3,0,0,0,17.8,96.8Zm4-37,8.9-8.9,2.2,2.2.4.5.5.4L46.1,66.2l.4.5.5.4,2.2,2.2-8.9,8.9a11,11,0,0,1-15.6,0l-2.8-2.8A11,11,0,0,1,21.8,59.8Z"></path><path data-name="Compound Path" d="M82.2,3.2,79.4,6.1a8.3,8.3,0,0,1,0,11.7L78.2,19A15,15,0,0,0,57,19l-8.9,8.9-1.2-1.2A2,2,0,0,0,44,29.5L70.5,56a2,2,0,0,0,2.8-2.8l-1.2-1.2L81,43a15,15,0,0,0,0-21.2l1.2-1.2A12.3,12.3,0,0,0,82.2,3.2Zm-4,37-8.9,8.9L50.9,30.7l8.9-8.9a11,11,0,0,1,15.6,0l2.8,2.8a11,11,0,0,1,0,15.6Z"></path>
    </svg>
  </g>

  <rect width="100" height="100" x="572" y="100" rx="15" ry="15" fill="rgba(255, 206, 60, 0.5)"
        stroke-width="4"
        stroke="#ffce3c"/>

  <!-- https://thenounproject.com/term/process/2473979/ -->
  <g transform="scale(0.25) translate(2335 446)">
    <svg x="0px" y="0px"  xmlns:x="http://ns.adobe.com/Extensibility/1.0/" xmlns:i="http://ns.adobe.com/AdobeIllustrator/10.0/" xmlns:graph="http://ns.adobe.com/Graphs/1.0/" xmlns="http://www.w3.org/2000/svg" xmlns:xlink="http://www.w3.org/1999/xlink" height="300px" width="300px" fill="#000000" version="1.1" viewBox="0 0 100 100" style="enable-background:new 0 0 100 100;" xml:space="preserve">
      <g>
        <path d="M63,73.7l1.1-4.9c0.6-2.4-0.8-4.9-3.2-5.7l-4.7-1.6c-0.2-0.1-0.4-0.2-0.4-0.5c-0.2-1.2-0.4-2.4-0.8-3.5     c-0.1-0.2,0-0.4,0.2-0.6l3.5-3.5c1.8-1.8,1.9-4.5,0.4-6.5L56,43.1c-1.6-2-4.3-2.4-6.4-1.1l-4.2,2.7c-0.2,0.1-0.4,0.1-0.6,0     c-1-0.6-2.1-1.1-3.3-1.6c-0.2-0.1-0.3-0.3-0.3-0.5l-0.5-4.9c-0.3-2.5-2.3-4.3-4.8-4.3h-5c-2.5,0-4.6,1.9-4.8,4.3l-0.5,4.9     c0,0.2-0.2,0.4-0.3,0.5c-1.2,0.4-2.3,1-3.3,1.5c-0.2,0.1-0.4,0.1-0.6,0L17.1,42c-2.1-1.3-4.9-0.9-6.4,1.1L7.6,47     C6,49,6.2,51.8,8,53.5l3.5,3.5c0.2,0.2,0.2,0.4,0.2,0.5c-0.3,1.1-0.6,2.3-0.8,3.6c0,0.2-0.2,0.4-0.4,0.4l-4.7,1.6     c-2.4,0.8-3.7,3.3-3.1,5.7l1.1,4.9c0.6,2.4,2.8,4,5.3,3.7l4.8-0.6c0.3,0,0.5,0.1,0.6,0.2c0.7,1,1.4,2,2.2,2.8     c0.1,0.1,0.2,0.3,0.2,0.5l-1.7,4.8c-0.8,2.3,0.2,4.9,2.5,6l4.5,2.2c2.2,1.1,4.9,0.3,6.2-1.8l2.6-4.2c0.1-0.2,0.3-0.3,0.6-0.3     c1.2,0.1,2.4,0.1,3.6,0c0.2,0,0.4,0.1,0.6,0.3l2.6,4.2c0.9,1.5,2.5,2.3,4.1,2.3c0.7,0,1.4-0.2,2.1-0.5l4.5-2.2     c2.2-1.1,3.3-3.7,2.5-6l-1.7-4.7c-0.1-0.2,0-0.4,0.2-0.5c0.8-0.9,1.6-1.8,2.2-2.8c0.1-0.1,0.3-0.3,0.5-0.3l5,0.6     C60.1,77.7,62.5,76.1,63,73.7z M58.9,72.7c-0.1,0.3-0.4,0.5-0.7,0.5l-5-0.6c-0.2,0-0.4,0-0.5,0c-1.6,0-3.1,0.8-4,2.2     c-0.5,0.8-1.2,1.6-1.8,2.3c-1.2,1.3-1.6,3.2-1,4.8l1.7,4.7c0.1,0.3,0,0.6-0.3,0.7l-4.5,2.2c-0.3,0.1-0.6,0-0.8-0.2l-2.6-4.2     c-1-1.6-2.8-2.5-4.7-2.3c-0.9,0.1-1.8,0.1-2.6,0c-1.9-0.2-3.7,0.7-4.7,2.3l-2.6,4.2c-0.2,0.3-0.5,0.4-0.8,0.2l-4.5-2.2     c-0.3-0.1-0.4-0.4-0.3-0.7l1.7-4.8c0.6-1.6,0.2-3.5-1.1-4.8c-0.7-0.7-1.3-1.5-1.8-2.3c-1-1.5-2.8-2.3-4.7-2.1l-4.8,0.6     c-0.3,0-0.6-0.2-0.7-0.5l-1.1-4.9c-0.1-0.3,0.1-0.6,0.4-0.7l4.7-1.6c1.7-0.6,3-2.1,3.2-3.9c0.1-1,0.3-2,0.6-2.9     c0.5-1.7,0-3.6-1.2-4.8L11,50.5c-0.2-0.2-0.2-0.6,0-0.8l3.1-3.9c0.2-0.2,0.5-0.3,0.8-0.1l4.2,2.7c1.5,1,3.4,1,5,0.1     c0.8-0.5,1.7-0.9,2.7-1.3c1.7-0.6,2.9-2.2,3.1-4l0.5-4.9c0-0.3,0.3-0.5,0.6-0.5h5c0.3,0,0.6,0.2,0.6,0.5l0.5,4.9     c0.2,1.8,1.4,3.4,3.1,4c1,0.4,1.9,0.8,2.7,1.3c1.5,0.9,3.4,0.8,5-0.1l4.2-2.7c0.3-0.2,0.6-0.1,0.8,0.1l3.1,3.9     c0.2,0.2,0.2,0.6,0,0.8L52.3,54c-1.3,1.3-1.8,3.1-1.2,4.8c0.3,0.9,0.5,1.9,0.6,2.9c0.3,1.8,1.5,3.3,3.2,3.9l4.7,1.6     c0.3,0.1,0.5,0.4,0.4,0.7L58.9,72.7z"/>
        <path d="M33.4,51.9c-6.9,0-12.5,5.6-12.5,12.5c0,6.9,5.6,12.5,12.5,12.5s12.5-5.6,12.5-12.5C45.8,57.5,40.2,51.9,33.4,51.9z      M33.4,72.6c-4.5,0-8.2-3.7-8.2-8.2c0-4.5,3.7-8.2,8.2-8.2s8.2,3.7,8.2,8.2C41.6,68.9,37.9,72.6,33.4,72.6z"/>
        <path d="M94.2,35.9l-4.7-1.6c-0.2-0.1-0.3-0.2-0.4-0.4c-0.2-1.3-0.4-2.5-0.8-3.6c-0.1-0.3,0.1-0.5,0.2-0.5l3.5-3.5     c1.8-1.8,1.9-4.5,0.4-6.5l-3.1-3.9c-1.6-1.9-4.3-2.4-6.4-1.1l-4.2,2.6c-0.1,0.1-0.4,0.2-0.6,0c-1-0.6-2.1-1.1-3.3-1.5     c-0.3-0.1-0.3-0.3-0.4-0.5L74,10.5c-0.3-2.5-2.4-4.4-4.8-4.4h-5c-2.5,0-4.6,1.9-4.8,4.3l-0.5,4.9c0,0.1-0.1,0.4-0.3,0.5     c-1.2,0.5-2.3,1-3.4,1.6c-0.1,0.1-0.3,0.1-0.5,0l-4.3-2.7c-2.1-1.3-4.8-0.9-6.4,1.1l-3.1,3.9c-1.5,2-1.3,4.8,0.4,6.5l3.5,3.4     c0.1,0.2,0.2,0.4,0.2,0.5c-0.3,1.1-0.6,2.3-0.8,3.5C44,35,44.8,36,45.9,36.2c1.1,0.2,2.2-0.6,2.4-1.8c0.1-1,0.3-1.9,0.6-2.9     c0.5-1.7,0.1-3.6-1.2-4.9l-3.5-3.5c-0.3-0.3-0.2-0.6,0-0.8l3.1-3.8c0.2-0.2,0.5-0.3,0.8-0.2l4.2,2.6c1.4,1,3.4,1,5,0.1     c0.8-0.5,1.7-0.9,2.6-1.2c1.7-0.6,2.9-2.2,3.1-4l0.5-4.9c0-0.3,0.3-0.5,0.6-0.5h5c0.3,0,0.6,0.2,0.6,0.5l0.5,4.9     c0.2,1.9,1.4,3.4,3.1,4c1,0.4,1.8,0.8,2.6,1.2c1.6,0.9,3.5,0.9,5-0.1l4.1-2.6c0.3-0.2,0.6-0.1,0.8,0.1l3.1,3.9     c0.2,0.2,0.2,0.6-0.1,0.8l-3.5,3.5c-1.3,1.3-1.8,3.1-1.2,4.8c0.3,0.9,0.5,1.9,0.6,2.8c0.2,1.7,1.5,3.3,3.2,3.9l4.7,1.6     c0.3,0.1,0.5,0.4,0.4,0.7l-1.1,4.9c-0.1,0.3-0.3,0.5-0.7,0.5l-5-0.6c-1.8-0.2-3.5,0.6-4.5,2.1c-0.5,0.8-1.1,1.5-1.8,2.3     c-1.3,1.4-1.6,3.3-1,4.9l1.7,4.7c0.1,0.3,0,0.6-0.3,0.7L76,62.3c-0.3,0.1-0.6,0.1-0.7-0.2l-2.6-4.2c-1-1.6-2.8-2.5-4.7-2.3     c-0.8,0.1-1.8,0.1-2.7,0c-1.2,0-2.2,0.8-2.3,2c-0.1,1.2,0.8,2.2,2,2.3c1.2,0.1,2.3,0.1,3.4,0c0.2,0,0.5,0,0.7,0.3l2.6,4.2     c0.9,1.5,2.5,2.3,4.1,2.3c0.7,0,1.5-0.2,2.2-0.5l4.5-2.2c2.2-1,3.3-3.6,2.4-6l-1.7-4.7c-0.1-0.2,0-0.4,0.2-0.5     c0.8-0.9,1.6-1.8,2.2-2.8c0,0,0.3-0.2,0.4-0.3l5.1,0.6c2.5,0.3,4.8-1.4,5.3-3.8l1.1-4.8C97.9,39.2,96.6,36.7,94.2,35.9z"/>
        <path d="M66.9,45.3c-1.2,0-2.1,1-2.1,2.2c0,1.2,1,2.1,2.1,2.1c0,0,0,0,0.1,0c6.7-0.2,12-5.7,12-12.5c0-6.9-5.6-12.5-12.5-12.5     c-5.6,0-10.6,3.8-12.1,9.2c-0.3,1.1,0.4,2.3,1.5,2.6c1.1,0.3,2.3-0.4,2.6-1.5c1-3.6,4.2-6.1,8-6.1c4.5,0,8.2,3.7,8.2,8.2     C74.8,41.6,71.4,45.2,66.9,45.3z"/>
        <path d="M13.5,36.9c1.2,0,2.1-1,2.1-2.1V20.1c0-2.2,1.8-3.9,3.9-3.9h11.1l-2.5,2.5c-0.8,0.8-0.8,2.2,0,3c0.4,0.4,1,0.6,1.5,0.6     c0.5,0,1.1-0.2,1.5-0.6l6.2-6.2c0.8-0.8,0.8-2.2,0-3l-6.2-6.2c-0.8-0.8-2.2-0.8-3,0c-0.8,0.8-0.8,2.2,0,3l2.5,2.5H19.5     c-4.5,0-8.2,3.7-8.2,8.2v14.7C11.3,36,12.3,36.9,13.5,36.9z"/>
        <path d="M86.5,68.4c-1.2,0-2.1,1-2.1,2.1v9.4c0,2.2-1.8,3.9-3.9,3.9H67.6l2.5-2.5c0.8-0.8,0.8-2.2,0-3c-0.8-0.8-2.2-0.8-3,0     L61,84.5c-0.8,0.8-0.8,2.2,0,3l6.2,6.2c0.4,0.4,1,0.6,1.5,0.6c0.5,0,1.1-0.2,1.5-0.6c0.8-0.8,0.8-2.2,0-3l-2.5-2.5h12.8     c4.5,0,8.2-3.7,8.2-8.2v-9.4C88.7,69.3,87.7,68.4,86.5,68.4z"/>
      </g>
    </svg>
  </g>

  <!--https://thenounproject.com/search/?q=search+index&i=192319 -->
  <g transform="scale(0.35) translate(2375 270)">
    <svg x="0px" y="0px"  xmlns:x="http://ns.adobe.com/Extensibility/1.0/" xmlns:i="http://ns.adobe.com/AdobeIllustrator/10.0/" xmlns:graph="http://ns.adobe.com/Graphs/1.0/" xmlns="http://www.w3.org/2000/svg" xmlns:xlink="http://www.w3.org/1999/xlink" height="300px" width="300px" fill="#000000" version="1.1" viewBox="0 0 100 100" style="enable-background:new 0 0 100 100;" xml:space="preserve">
      <path d="M85,92.5V20c0-0.7-0.3-1.3-0.7-1.8L71.8,5.7C71.3,5.3,70.7,5,70,5H17.5C16.1,5,15,6.1,15,7.5v85c0,1.4,1.1,2.5,2.5,2.5h65  C83.9,95,85,93.9,85,92.5z M70,11l9,9h-9V11z M80,90H20V10h45v12.5c0,1.4,1.1,2.5,2.5,2.5H80V90z"></path><path d="M60,50c0-8.3-6.7-15-15-15s-15,6.7-15,15s6.7,15,15,15c3.2,0,6.2-1,8.7-2.8l12.1,12.1c0.5,0.5,1.1,0.7,1.8,0.7  s1.3-0.2,1.8-0.7c1-1,1-2.6,0-3.5L57.2,58.7C59,56.2,60,53.2,60,50z M45,60c-5.5,0-10-4.5-10-10s4.5-10,10-10s10,4.5,10,10  S50.5,60,45,60z"></path>
    </svg>
  </g>

  <text x="85" y="235" text-anchor="middle">Source system</text>
  <text x="350" y="235" text-anchor="middle">Adapter</text>
  <text x="622" y="235" text-anchor="middle">Transformation</text>
  <text x="885" y="235" text-anchor="middle">Search index</text>

  <!-- Arrows -->
  <marker id="arrowhead" markerWidth="5" markerHeight="3.5"
    refX="0" refY="1.75" orient="auto">
    <polygon points="0 0, 5 1.75, 0 3.5" />
  </marker>

  <line x1="140" y1="150" x2="265" y2="150" marker-end="url(#arrowhead)"/>
  <line x1="415" y1="150" x2="540" y2="150" marker-end="url(#arrowhead)"/>
  <line x1="690" y1="150" x2="815" y2="150" marker-end="url(#arrowhead)"/>
</svg>
