<svg xmlns="http://www.w3.org/2000/svg" viewBox="0 0 1000 300">
  <style>
    text {
      fill: black;
      font-size: 24px;
      stroke-width: 0;
      dominant-baseline: middle;
      font-family: sans-serif;
    }

    line {
      stroke-linecap: round;
      stroke-width: 4;
      stroke: black;
    }
  </style>

  <!-- https://thenounproject.com/term/database/396180/ Database by icon 54. From The Noun Project, CC BY -->
  <g transform="scale(1.6) translate(15 35)">
    <svg y="20" xmlns="http://www.w3.org/2000/svg" xmlns:xlink="http://www.w3.org/1999/xlink" height="300px" width="300px" fill="#000000" version="1.1" viewBox="0 0 100 100" enable-background="new 0 0 100 100" xml:space="preserve">
      <path d="M12,0C6.393,0,2,1.977,2,4.5v15C2,22.023,6.393,24,12,24s10-1.977,10-4.5v-15C22,1.977,17.607,0,12,0z M21,14.5  c0,1.655-3.696,3.5-9,3.5s-9-1.845-9-3.5v-3.018C4.603,12.984,7.985,14,12,14s7.397-1.016,9-2.518V14.5z M21,9.5  c0,1.655-3.696,3.5-9,3.5s-9-1.845-9-3.5V6.482C4.603,7.984,7.985,9,12,9s7.397-1.016,9-2.518V9.5z M12,1c5.304,0,9,1.845,9,3.5  S17.304,8,12,8S3,6.155,3,4.5S6.696,1,12,1z M12,23c-5.304,0-9-1.845-9-3.5v-3.018C4.603,17.984,7.985,19,12,19s7.397-1.016,9-2.518  V19.5C21,21.155,17.304,23,12,23z"></path>
    </svg>
  </g>

  <rect width="100" height="100" x="300" y="100" rx="15" ry="15" fill="rgba(255, 206, 60, 0.5)"
        stroke-width="4"
        stroke="#ffce3c"/>

  <!-- https://thenounproject.com/term/plug/1456415/ Plug by Lakshisha. From The Noun Project, CC BY -->
  <g transform="scale(0.25) translate(1255 446)">
    <svg x="0px" y="0px" height="300px" width="300px" fill="#000000" version="1.1" viewBox="0 0 100 100" style="enable-background:new 0 0 100 100;" xml:space="preserve">
      <path data-name="Compound Path" d="M17.8,96.8l2.8-2.8a8.3,8.3,0,0,1,0-11.7L21.8,81A15,15,0,0,0,43,81l8.9-8.9,1.2,1.2A2,2,0,0,0,56,70.5l-5.2-5.2,9-9A2,2,0,0,0,57,53.4l-9,9L37.6,52.1l9-9a2,2,0,0,0-2.8-2.8l-9,9L29.5,44a2,2,0,0,0-2.8,2.8l1.2,1.2L19,57a15,15,0,0,0,0,21.2l-1.2,1.2A12.3,12.3,0,0,0,17.8,96.8Zm4-37,8.9-8.9,2.2,2.2.4.5.5.4L46.1,66.2l.4.5.5.4,2.2,2.2-8.9,8.9a11,11,0,0,1-15.6,0l-2.8-2.8A11,11,0,0,1,21.8,59.8Z"></path><path data-name="Compound Path" d="M82.2,3.2,79.4,6.1a8.3,8.3,0,0,1,0,11.7L78.2,19A15,15,0,0,0,57,19l-8.9,8.9-1.2-1.2A2,2,0,0,0,44,29.5L70.5,56a2,2,0,0,0,2.8-2.8l-1.2-1.2L81,43a15,15,0,0,0,0-21.2l1.2-1.2A12.3,12.3,0,0,0,82.2,3.2Zm-4,37-8.9,8.9L50.9,30.7l8.9-8.9a11,11,0,0,1,15.6,0l2.8,2.8a11,11,0,0,1,0,15.6Z"></path>
    </svg>
  </g>

  <rect width="100" height="100" x="572" y="100" rx="15" ry="15" fill="rgba(255, 206, 60, 0.5)"
        stroke-width="4"
        stroke="#ffce3c"/>

  <!-- https://thenounproject.com/search/?q=transform&i=2844451 -->
  <g transform="scale(2.52) translate(230.5 43.5)">
    <g stroke="none" stroke-width="1" fill="none" fill-rule="evenodd"><path d="M15.8928932,22.6 L15,21.7071068 L15.7071068,21 L17.8284271,23.1213203 L15.7071068,25.2426407 L15,24.5355339 L15.9355339,23.6 L12,23.6 L12,22.6 L15.8928932,22.6 Z M24.5,29 C21.4624339,29 19,26.5375661 19,23.5 C19,20.4624339 21.4624339,18 24.5,18 C27.5375661,18 30,20.4624339 30,23.5 C30,26.5375661 27.5375661,29 24.5,29 Z M24.5,28 C26.9852814,28 29,25.9852814 29,23.5 C29,21.0147186 26.9852814,19 24.5,19 C22.0147186,19 20,21.0147186 20,23.5 C20,25.9852814 22.0147186,28 24.5,28 Z M2,19 L11,19 L11,28 L2,28 L2,19 Z M3,20 L3,27 L10,27 L10,20 L3,20 Z" fill="#000000"></path><path d="M15.8928932,8.6 L15,7.70710678 L15.7071068,7 L17.8284271,9.12132034 L15.7071068,11.2426407 L15,10.5355339 L15.9355339,9.6 L12,9.6 L12,8.6 L15.8928932,8.6 Z M24.5,15 C21.4624339,15 19,12.5375661 19,9.5 C19,6.46243388 21.4624339,4 24.5,4 C27.5375661,4 30,6.46243388 30,9.5 C30,12.5375661 27.5375661,15 24.5,15 Z M24.5,14 C26.9852814,14 29,11.9852814 29,9.5 C29,7.01471863 26.9852814,5 24.5,5 C22.0147186,5 20,7.01471863 20,9.5 C20,11.9852814 22.0147186,14 24.5,14 Z M2,5 L11,5 L11,14 L2,14 L2,5 Z M3,6 L3,13 L10,13 L10,6 L3,6 Z" fill="#000000" transform="translate(16.000000, 9.500000) rotate(-180.000000) translate(-16.000000, -9.500000) "></path></g>
  </g>

  <!--https://thenounproject.com/search/?q=search+index&i=192319 -->
  <g transform="scale(0.35) translate(2375 270)">
    <svg x="0px" y="0px"  xmlns:x="http://ns.adobe.com/Extensibility/1.0/" xmlns:i="http://ns.adobe.com/AdobeIllustrator/10.0/" xmlns:graph="http://ns.adobe.com/Graphs/1.0/" xmlns="http://www.w3.org/2000/svg" xmlns:xlink="http://www.w3.org/1999/xlink" height="300px" width="300px" fill="#000000" version="1.1" viewBox="0 0 100 100" style="enable-background:new 0 0 100 100;" xml:space="preserve">
      <path d="M85,92.5V20c0-0.7-0.3-1.3-0.7-1.8L71.8,5.7C71.3,5.3,70.7,5,70,5H17.5C16.1,5,15,6.1,15,7.5v85c0,1.4,1.1,2.5,2.5,2.5h65  C83.9,95,85,93.9,85,92.5z M70,11l9,9h-9V11z M80,90H20V10h45v12.5c0,1.4,1.1,2.5,2.5,2.5H80V90z"></path><path d="M60,50c0-8.3-6.7-15-15-15s-15,6.7-15,15s6.7,15,15,15c3.2,0,6.2-1,8.7-2.8l12.1,12.1c0.5,0.5,1.1,0.7,1.8,0.7  s1.3-0.2,1.8-0.7c1-1,1-2.6,0-3.5L57.2,58.7C59,56.2,60,53.2,60,50z M45,60c-5.5,0-10-4.5-10-10s4.5-10,10-10s10,4.5,10,10  S50.5,60,45,60z"></path>
    </svg>
  </g>

  <text x="85" y="235" text-anchor="middle">Source system</text>
  <text x="350" y="235" text-anchor="middle">Adapter</text>
  <text x="622" y="235" text-anchor="middle">Transformation</text>
  <text x="885" y="235" text-anchor="middle">Search index</text>

  <!-- Arrows -->
  <marker id="arrowhead" markerWidth="5" markerHeight="3.5"
    refX="0" refY="1.75" orient="auto">
    <polygon points="0 0, 5 1.75, 0 3.5" />
  </marker>

  <line x1="140" y1="150" x2="265" y2="150" marker-end="url(#arrowhead)"/>
  <line x1="415" y1="150" x2="540" y2="150" marker-end="url(#arrowhead)"/>
  <line x1="690" y1="150" x2="815" y2="150" marker-end="url(#arrowhead)"/>
</svg>
